<?xml version="1.0" encoding="UTF-8"?>
<!DOCTYPE svg PUBLIC "-//W3C//DTD SVG 1.1//EN" "http://www.w3.org/Graphics/SVG/1.1/DTD/svg11.dtd">
<!-- Creator: CorelDRAW X6 -->
<svg xmlns="http://www.w3.org/2000/svg" xml:space="preserve" width="0.916661in" height="0.916661in" version="1.1" style="shape-rendering:geometricPrecision; text-rendering:geometricPrecision; image-rendering:optimizeQuality; fill-rule:evenodd; clip-rule:evenodd"
viewBox="0 0 917 917"
 xmlns:xlink="http://www.w3.org/1999/xlink">
 <defs>
  <style type="text/css">
   <![CDATA[
    .fil1 {fill:#FEFEFE;fill-rule:nonzero}
    .fil0 {fill:url(#id1)}
   ]]>
  </style>
   <clipPath id="id0" style="clip-rule:nonzero">
    <path d="M799 879l-380 0 -210 -210 8 -304 0 -61 58 -19 425 9 187 187 0 310c0,8 -1,17 -3,24 -2,6 -4,12 -7,18l-1 2 -1 2 -1 2 -1 2 -1 2 -1 2 -1 2 -1 2 -1 2c0,1 -1,1 -1,2l-1 2c-1,1 -2,2 -3,3l-2 2 -2 1 -2 1 -2 1 -2 1 -2 1 -2 1 -2 1 -2 1 -2 1 -2 1 -2 1 -2 1 -2 1 -2 1 -2 1 -2 1 -2 1 -2 1 -2 1 -2 1 -2 1 -2 0c-1,0 -2,0 -2,1l-2 0c-1,0 -2,0 -2,0l-2 0 -2 0 -2 0 -2 0 -2 0 0 0z"/>
   </clipPath>
  <linearGradient id="id1" gradientUnits="userSpaceOnUse" x1="38.1929" y1="453.831" x2="887.469" y2="453.831">
   <stop offset="0" style="stop-color:#76C04E"/>
   <stop offset="1" style="stop-color:#41A74E"/>
  </linearGradient>
 </defs>
 <g id="Layer_x0020_1">
  <metadata id="CorelCorpID_0Corel-Layer"/>
  <path class="fil0" d="M419 878l-292 0c-49,0 -89,-40 -89,-89l0 -672c0,-49 40,-89 89,-89l672 0c49,0 89,40 89,89l0 363 -187 -187 -425 -9 -58 19 0 61 -8 304 210 210z"/>
  <path class="fil1" d="M799 -9l-672 0c-70,0 -127,57 -127,127l0 672c0,70 57,127 127,127l672 0c70,0 127,-57 127,-127l0 -672c0,-70 -57,-127 -127,-127zm0 38c49,0 89,40 89,89l0 672c0,49 -40,89 -89,89l-672 0c-49,0 -89,-40 -89,-89l0 -672c0,-49 40,-89 89,-89l672 0z"/>
  <g style="clip-path:url(#id0)">
   <image transform="matrix(50.4168 0 0 44.3172 -22907.7 -19420.1)" x="458" y="444" width="14" height="14" xlink:href="p1cj72shgogfd18hhnu11ol41lt518_Images\p1cj72shgogfd18hhnu11ol41lt518_ImgID1.png"/>
  </g>
  <path class="fil1" d="M351 541c-16,0 -30,-13 -30,-30 0,-16 13,-30 30,-30 16,0 30,13 30,30 0,16 -13,30 -30,30zm88 51l0 -149 -21 0 0 -22 21 0 0 -67 -43 0 0 -22 -92 0 0 22 -43 0 0 67 21 0 0 22 -21 0 0 149 -11 0 0 32 198 0 0 -32 -10 0z"/>
  <path class="fil1" d="M578 541c-16,0 -30,-13 -30,-30 0,-16 13,-30 30,-30 16,0 30,13 30,30 0,16 -13,30 -30,30zm88 51l0 -149 -21 0 0 -22 21 0 0 -67 -43 0 0 -22 -92 0 0 22 -43 0 0 67 21 0 0 22 -21 0 0 149 -11 0 0 32 198 0 0 -32 -11 0z"/>
  <path class="fil1" d="M653 272l-7 0 0 -19 -366 0 0 19 -7 0c-35,0 -63,28 -63,63l0 333 26 0 0 -333c0,-20 17,-37 37,-37l7 0 0 19 366 0 0 -19 7 0c20,0 37,17 37,37l0 333 26 0 0 -333c0,-35 -28,-63 -63,-63z"/>
 </g>
</svg>
